<svg width="37" height="37" viewBox="0 0 37 37" fill="none" xmlns="http://www.w3.org/2000/svg">
<path d="M20.0848 3.08333C21.8192 3.08796 22.6995 3.09721 23.4595 3.11879L23.7586 3.12958C24.104 3.14192 24.4447 3.15733 24.8563 3.17583C26.4966 3.25292 27.6159 3.51192 28.5979 3.89271C29.6154 4.28429 30.4726 4.81462 31.3298 5.67025C32.114 6.44067 32.7206 7.37298 33.1073 8.40208C33.4881 9.38412 33.7471 10.5034 33.8242 12.1452C33.8427 12.5553 33.8581 12.896 33.8704 13.2429L33.8797 13.542C33.9028 14.3005 33.912 15.1808 33.9151 16.9152L33.9167 18.0652V20.0848C33.9204 21.2093 33.9086 22.3338 33.8812 23.458L33.872 23.7571C33.8596 24.104 33.8442 24.4447 33.8257 24.8547C33.7486 26.4966 33.4865 27.6143 33.1073 28.5979C32.7206 29.627 32.114 30.5593 31.3298 31.3297C30.5593 32.114 29.627 32.7206 28.5979 33.1073C27.6159 33.4881 26.4966 33.7471 24.8563 33.8242L23.7586 33.8704L23.4595 33.8797C22.6995 33.9012 21.8192 33.912 20.0848 33.9151L18.9348 33.9167H16.9167C15.7917 33.9206 14.6667 33.9088 13.542 33.8812L13.2429 33.872C12.8769 33.8581 12.511 33.8422 12.1453 33.8242C10.5049 33.7471 9.38567 33.4881 8.40209 33.1073C7.37353 32.7204 6.44177 32.1138 5.67179 31.3297C4.887 30.5595 4.27984 29.6272 3.89271 28.5979C3.51192 27.6159 3.25292 26.4966 3.17584 24.8547L3.12959 23.7571L3.12188 23.458C3.09346 22.3338 3.08061 21.2093 3.08334 20.0848V16.9152C3.07907 15.7907 3.09037 14.6662 3.11725 13.542L3.12804 13.2429C3.14038 12.896 3.15579 12.5553 3.17429 12.1452C3.25138 10.5034 3.51038 9.38566 3.89117 8.40208C4.2792 7.37255 4.88743 6.44021 5.67334 5.67025C6.44286 4.88639 7.37408 4.27978 8.40209 3.89271C9.38567 3.51192 10.5034 3.25292 12.1453 3.17583C12.5553 3.15733 12.8976 3.14192 13.2429 3.12958L13.542 3.12033C14.6662 3.09294 15.7907 3.08112 16.9152 3.08487L20.0848 3.08333ZM18.5 10.7917C16.4556 10.7917 14.495 11.6038 13.0494 13.0494C11.6038 14.495 10.7917 16.4556 10.7917 18.5C10.7917 20.5444 11.6038 22.505 13.0494 23.9506C14.495 25.3962 16.4556 26.2083 18.5 26.2083C20.5444 26.2083 22.505 25.3962 23.9506 23.9506C25.3962 22.505 26.2083 20.5444 26.2083 18.5C26.2083 16.4556 25.3962 14.495 23.9506 13.0494C22.505 11.6038 20.5444 10.7917 18.5 10.7917ZM18.5 13.875C19.1074 13.8749 19.7088 13.9944 20.27 14.2268C20.8311 14.4591 21.3411 14.7997 21.7706 15.2291C22.2001 15.6585 22.5409 16.1683 22.7734 16.7294C23.0059 17.2905 23.1257 17.8919 23.1258 18.4992C23.1259 19.1066 23.0063 19.708 22.774 20.2692C22.5417 20.8304 22.2011 21.3403 21.7717 21.7698C21.3423 22.1994 20.8325 22.5401 20.2714 22.7726C19.7103 23.0052 19.1089 23.1249 18.5015 23.125C17.2749 23.125 16.0985 22.6377 15.2312 21.7704C14.3638 20.903 13.8765 19.7266 13.8765 18.5C13.8765 17.2734 14.3638 16.097 15.2312 15.2296C16.0985 14.3623 17.2749 13.875 18.5015 13.875M26.5953 8.47917C26.0842 8.47917 25.594 8.6822 25.2326 9.04359C24.8712 9.40499 24.6682 9.89515 24.6682 10.4062C24.6682 10.9173 24.8712 11.4075 25.2326 11.7689C25.594 12.1303 26.0842 12.3333 26.5953 12.3333C27.1064 12.3333 27.5965 12.1303 27.9579 11.7689C28.3193 11.4075 28.5224 10.9173 28.5224 10.4062C28.5224 9.89515 28.3193 9.40499 27.9579 9.04359C27.5965 8.6822 27.1064 8.47917 26.5953 8.47917Z" fill="#CBBA9E"/>
</svg>
