<svg width="220" height="35" viewBox="0 0 220 35" fill="none" xmlns="http://www.w3.org/2000/svg">
<path d="M2.91667 32.0833V29.1667C2.91667 29.1667 10.2083 26.25 17.5 26.25C24.7917 26.25 32.0833 29.1667 32.0833 29.1667V32.0833H2.91667ZM16.4792 13.2708C14.7292 7.58333 5.83334 8.89583 5.83334 8.89583C5.83334 8.89583 6.125 20.2708 14.4375 18.5208C13.8542 14.2917 11.6667 13.125 11.6667 13.125C15.75 13.125 16.0417 18.0833 16.0417 18.0833V24.7917H18.9583V18.6667C18.9583 18.6667 18.9583 12.9792 23.3333 11.5208C23.3333 11.5208 20.4167 15.8958 20.4167 18.8125C30.625 19.8333 30.625 5.83333 30.625 5.83333C30.625 5.83333 17.6458 4.375 16.4792 13.2708Z" fill="#8A6440"/>
<path d="M42.184 22V10.64H47C47.5227 10.64 48.0027 10.7467 48.44 10.96C48.8773 11.1733 49.256 11.4613 49.576 11.824C49.9067 12.1867 50.1627 12.592 50.344 13.04C50.5253 13.488 50.616 13.9467 50.616 14.416C50.616 15.056 50.4667 15.664 50.168 16.24C49.8693 16.816 49.4587 17.2853 48.936 17.648C48.4133 18.0107 47.7947 18.192 47.08 18.192H44.392V22H42.184ZM44.392 16.256H46.952C47.2187 16.256 47.4587 16.1813 47.672 16.032C47.8853 15.8827 48.056 15.6693 48.184 15.392C48.312 15.104 48.376 14.7787 48.376 14.416C48.376 14.0213 48.3013 13.6853 48.152 13.408C48.0133 13.1307 47.8267 12.9227 47.592 12.784C47.368 12.6453 47.1227 12.576 46.856 12.576H44.392V16.256ZM52.1528 22V10.64H57.1768C57.6994 10.64 58.1794 10.7467 58.6168 10.96C59.0648 11.1733 59.4488 11.4613 59.7688 11.824C60.0994 12.1867 60.3501 12.592 60.5208 13.04C60.7021 13.488 60.7928 13.9467 60.7928 14.416C60.7928 14.896 60.7074 15.36 60.5368 15.808C60.3768 16.2453 60.1421 16.6293 59.8328 16.96C59.5234 17.2907 59.1608 17.5467 58.7448 17.728L61.3368 22H58.9048L56.5688 18.192H54.3608V22H52.1528ZM54.3608 16.256H57.1288C57.4061 16.256 57.6514 16.176 57.8648 16.016C58.0781 15.8453 58.2488 15.6213 58.3768 15.344C58.5048 15.0667 58.5688 14.7573 58.5688 14.416C58.5688 14.0533 58.4941 13.7387 58.3448 13.472C58.1954 13.1947 58.0034 12.976 57.7688 12.816C57.5448 12.656 57.2994 12.576 57.0328 12.576H54.3608V16.256ZM65.8814 10.64H68.1214L72.2974 22H70.0254L68.9694 19.168H65.0014L63.9614 22H61.6894L65.8814 10.64ZM68.5694 17.616L67.0014 12.928L65.3694 17.616H68.5694ZM73.5434 22V10.656H75.7514V16.048L80.5194 10.64H82.9514L78.5994 15.68L83.2234 22H80.7274L77.1914 17.104L75.7514 18.608V22H73.5434ZM84.2465 22V10.64H89.2705C89.7932 10.64 90.2732 10.7467 90.7105 10.96C91.1585 11.1733 91.5425 11.4613 91.8625 11.824C92.1932 12.1867 92.4438 12.592 92.6145 13.04C92.7958 13.488 92.8865 13.9467 92.8865 14.416C92.8865 14.896 92.8012 15.36 92.6305 15.808C92.4705 16.2453 92.2358 16.6293 91.9265 16.96C91.6172 17.2907 91.2545 17.5467 90.8385 17.728L93.4305 22H90.9985L88.6625 18.192H86.4545V22H84.2465ZM86.4545 16.256H89.2225C89.4998 16.256 89.7452 16.176 89.9585 16.016C90.1718 15.8453 90.3425 15.6213 90.4705 15.344C90.5985 15.0667 90.6625 14.7573 90.6625 14.416C90.6625 14.0533 90.5878 13.7387 90.4385 13.472C90.2892 13.1947 90.0972 12.976 89.8625 12.816C89.6385 12.656 89.3932 12.576 89.1265 12.576H86.4545V16.256ZM94.8871 22V10.64H97.0951V22H94.8871ZM107.961 12.576H104.329V22H102.137V12.576H98.5053V10.64H107.961V12.576ZM109.372 22V10.64H111.58V22H109.372ZM120.381 10.64H122.621L126.797 22H124.525L123.469 19.168H119.501L118.461 22H116.189L120.381 10.64ZM123.069 17.616L121.501 12.928L119.869 17.616H123.069ZM128.043 22V10.64H132.171C133.409 10.64 134.443 10.896 135.275 11.408C136.107 11.9093 136.731 12.592 137.147 13.456C137.563 14.3093 137.771 15.2587 137.771 16.304C137.771 17.456 137.542 18.4587 137.083 19.312C136.625 20.1653 135.974 20.8267 135.131 21.296C134.299 21.7653 133.313 22 132.171 22H128.043ZM135.547 16.304C135.547 15.568 135.414 14.9227 135.147 14.368C134.881 13.8027 134.497 13.3653 133.995 13.056C133.494 12.736 132.886 12.576 132.171 12.576H130.251V20.064H132.171C132.897 20.064 133.51 19.904 134.011 19.584C134.513 19.2533 134.891 18.8053 135.147 18.24C135.414 17.664 135.547 17.0187 135.547 16.304ZM140.227 10.64L143.299 19.376L146.339 10.64H148.659L144.355 22H142.227L137.907 10.64H140.227ZM157.76 20.064V22H149.872V10.64H157.616V12.576H152.08V15.312H156.864V17.104H152.08V20.064H157.76ZM161.689 14.704V22H159.481V10.64H161.241L167.113 18.128V10.656H169.321V22H167.481L161.689 14.704ZM180.18 12.576H176.548V22H174.356V12.576H170.724V10.64H180.18V12.576ZM186.406 22.08C185.5 22.08 184.726 21.9307 184.086 21.632C183.457 21.3227 182.945 20.9013 182.55 20.368C182.166 19.8347 181.884 19.232 181.702 18.56C181.521 17.8773 181.43 17.168 181.43 16.432V10.64H183.638V16.432C183.638 16.9013 183.681 17.36 183.766 17.808C183.862 18.2453 184.017 18.64 184.23 18.992C184.444 19.344 184.726 19.6213 185.078 19.824C185.43 20.0267 185.868 20.128 186.39 20.128C186.924 20.128 187.366 20.0267 187.718 19.824C188.081 19.6107 188.364 19.328 188.566 18.976C188.78 18.624 188.934 18.2293 189.03 17.792C189.126 17.344 189.174 16.8907 189.174 16.432V10.64H191.366V16.432C191.366 17.2107 191.27 17.9413 191.078 18.624C190.897 19.3067 190.604 19.9093 190.198 20.432C189.804 20.944 189.292 21.3493 188.662 21.648C188.033 21.936 187.281 22.08 186.406 22.08ZM193.59 22V10.64H198.614C199.137 10.64 199.617 10.7467 200.054 10.96C200.502 11.1733 200.886 11.4613 201.206 11.824C201.537 12.1867 201.788 12.592 201.958 13.04C202.14 13.488 202.23 13.9467 202.23 14.416C202.23 14.896 202.145 15.36 201.974 15.808C201.814 16.2453 201.58 16.6293 201.27 16.96C200.961 17.2907 200.598 17.5467 200.182 17.728L202.774 22H200.342L198.006 18.192H195.798V22H193.59ZM195.798 16.256H198.566C198.844 16.256 199.089 16.176 199.302 16.016C199.516 15.8453 199.686 15.6213 199.814 15.344C199.942 15.0667 200.006 14.7573 200.006 14.416C200.006 14.0533 199.932 13.7387 199.782 13.472C199.633 13.1947 199.441 12.976 199.206 12.816C198.982 12.656 198.737 12.576 198.47 12.576H195.798V16.256ZM212.119 20.064V22H204.231V10.64H211.975V12.576H206.439V15.312H211.223V17.104H206.439V20.064H212.119Z" fill="#8A6440"/>
</svg>
