<svg width="18" height="18" viewBox="0 0 18 18" fill="none" xmlns="http://www.w3.org/2000/svg">
<g clip-path="url(#clip0_1580_2)">
<path fill-rule="evenodd" clip-rule="evenodd" d="M7.335 2.53689C7.335 2.53689 5.90006 3.44223 6.01059 3.5747C6.12112 3.70717 7.97484 5.91442 8.10731 6.02551C8.24062 6.13604 9.56559 7.17386 9.78637 7.15051C10.0069 7.12829 12.6349 5.75861 12.6565 5.49395C12.6785 5.22929 12.7448 3.61773 12.6565 3.61773C12.5682 3.61773 11.4646 3.11007 11.4646 3.11007L8.4614 2.44745L7.33359 2.53576" fill="#A01D22"/>
<path d="M9.6896 17.4293C9.6896 17.7635 9.33945 18.0343 8.90857 18.0343C8.47601 18.0343 8.12585 17.7635 8.12585 17.4293V13.3172C8.12585 12.9831 8.47601 12.7114 8.90857 12.7114C9.33945 12.7114 9.6896 12.9833 9.6896 13.3172V17.4293Z" fill="#3F7337"/>
<path d="M9.6896 14.9878C9.6896 14.9878 9.16676 15.6915 8.12585 15.5621L8.13148 14.605H9.29417L9.67582 14.6756L9.6896 14.9878Z" fill="#2D5428"/>
<path fill-rule="evenodd" clip-rule="evenodd" d="M9.91121 13.8572C10.2054 13.7701 10.496 13.6713 10.7822 13.561C13.122 12.1773 13.5829 9.56137 12.6711 7.65534C12.5772 7.45987 12.6005 7.16822 12.6607 6.94631C13.037 5.56312 14.0228 4.86506 15.5655 4.58494C15.0738 4.09275 14.7099 3.63038 14.2537 3.29428C13.5346 2.76328 12.6812 2.7225 11.7914 2.89716C11.7101 2.39512 11.6367 1.93444 11.5537 1.42031C9.90699 1.84472 8.62281 1.32441 7.63562 0C7.40415 0.435094 7.21318 0.849375 6.97243 1.23047C6.73168 1.61438 6.44874 1.97241 6.17031 2.33128C5.88624 2.69634 5.53665 2.84766 5.04249 2.82741C3.78728 2.77566 2.73456 3.47709 2.25024 4.61419C2.41487 4.65713 2.57837 4.70006 2.74074 4.743C3.85646 5.03719 4.60937 5.73722 4.93196 6.83691C5.02309 7.14628 4.92043 7.51922 4.87909 7.85925C4.7829 8.63916 4.52218 9.43087 4.59503 10.1919C4.73734 11.7053 5.55099 12.7913 6.80002 13.5248C7.80831 13.849 8.86046 13.9168 9.91065 13.8563M8.97577 3.97603C9.22918 4.31803 9.52478 4.41788 9.84062 4.28259C10.4405 4.02581 11.0039 3.68719 11.5034 3.42478C11.2024 4.40747 10.571 5.31253 9.37684 5.71641C8.80871 5.90738 8.31118 5.64356 8.28756 5.08556C8.24846 4.14281 7.75402 3.63403 6.90718 3.33928C7.72843 3.13369 8.46643 3.28725 8.97577 3.97603Z" fill="#BC2032"/>
<path fill-rule="evenodd" clip-rule="evenodd" d="M9.44325 13.6811C8.10366 12.8942 7.23037 11.7287 7.07737 10.1053C7.00003 9.28856 7.28016 8.43947 7.38225 7.60219C7.42697 7.23769 7.53806 6.83719 7.44047 6.50531C7.09425 5.32603 6.2865 4.57481 5.08922 4.25897C4.914 4.21256 4.74019 4.16728 4.56216 4.12088C4.82175 3.51197 5.23266 3.02062 5.7465 2.68622C5.54653 2.79028 5.319 2.83922 5.04225 2.82769C3.78703 2.77566 2.73431 3.47709 2.25 4.61419C2.41463 4.65713 2.57813 4.70006 2.7405 4.743C3.85622 5.03719 4.60912 5.73722 4.93172 6.83691C5.02284 7.14628 4.92019 7.51922 4.87884 7.85925C4.78266 8.63916 4.52194 9.43087 4.59478 10.1919C4.73709 11.7053 5.55075 12.7913 6.79978 13.5248C7.80834 13.849 8.8605 13.9171 9.91041 13.8563C9.94078 13.8471 9.97059 13.8344 10.0015 13.8248C9.8145 13.781 9.62775 13.7402 9.44325 13.6811ZM7.55859 2.20331C8.08819 2.22553 8.46394 2.06297 8.76769 1.67147C8.87709 1.53056 8.98509 1.39022 9.09422 1.24622C8.55 0.985781 8.06231 0.573469 7.63481 0C7.40334 0.435094 7.21238 0.849375 6.97163 1.23047C6.73088 1.61438 6.44794 1.97241 6.1695 2.33128C6.0596 2.47559 5.91932 2.59398 5.75859 2.67806C6.27272 2.34816 6.88922 2.17575 7.55859 2.20331Z" fill="#A01D22"/>
<path d="M12.3171 11.9942C12.069 12.8773 10.6099 13.5374 8.78882 13.5374C6.96575 13.5374 5.50578 12.877 5.25941 11.9925L5.22566 12.2476C5.22104 12.2765 5.21869 12.3058 5.21863 12.3351C5.21863 13.3501 6.7866 14.1452 8.78882 14.1452C10.7905 14.1452 12.3582 13.3504 12.3582 12.3351C12.3582 12.3024 12.3542 12.2692 12.3472 12.2195L12.3171 11.9942Z" fill="#3F7337"/>
<path d="M14.2324 11.4109C13.8496 12.7741 11.6005 13.7917 8.7888 13.7917C5.9763 13.7917 3.7263 12.773 3.34436 11.4086L3.29177 11.8018C3.28614 11.8465 3.28052 11.8918 3.28052 11.9365C3.28052 13.5023 5.70039 14.7291 8.78852 14.7291C11.8766 14.7291 14.2957 13.5025 14.2957 11.9365C14.2946 11.8768 14.2888 11.8173 14.2782 11.7585L14.2324 11.4109Z" fill="#2D5428"/>
</g>
<defs>
<clipPath id="clip0_1580_2">
<rect width="18" height="18" fill="white"/>
</clipPath>
</defs>
</svg>
