<svg width="37" height="37" viewBox="0 0 37 37" fill="none" xmlns="http://www.w3.org/2000/svg">
<path d="M18.5 3.08333C9.98998 3.08333 3.08331 9.99 3.08331 18.5C3.08331 27.01 9.98998 33.9167 18.5 33.9167C27.01 33.9167 33.9166 27.01 33.9166 18.5C33.9166 9.99 27.01 3.08333 18.5 3.08333ZM25.6533 13.5667C25.4221 16.0025 24.42 21.9225 23.9112 24.6512C23.6954 25.8075 23.2637 26.1929 22.8629 26.2392C21.9687 26.3162 21.2904 25.6533 20.4271 25.0829C19.0704 24.1887 18.2996 23.6337 16.9891 22.7704C15.4629 21.7683 16.4496 21.2133 17.3283 20.3192C17.5596 20.0879 21.5062 16.4958 21.5833 16.1721C21.594 16.123 21.5926 16.0721 21.5792 16.0238C21.5657 15.9754 21.5407 15.9311 21.5062 15.8946C21.4137 15.8175 21.2904 15.8483 21.1825 15.8637C21.0437 15.8946 18.8854 17.3283 14.6766 20.165C14.06 20.5812 13.505 20.7971 13.0116 20.7817C12.4566 20.7662 11.4083 20.4733 10.6221 20.2112C9.65081 19.9029 8.8954 19.7333 8.95706 19.1937C8.9879 18.9162 9.37331 18.6387 10.0979 18.3458C14.5996 16.3879 17.5904 15.0929 19.0858 14.4762C23.3716 12.6879 24.2504 12.3796 24.8362 12.3796C24.9596 12.3796 25.2525 12.4104 25.4375 12.5646C25.5916 12.6879 25.6379 12.8575 25.6533 12.9808C25.6379 13.0733 25.6687 13.3508 25.6533 13.5667Z" fill="#CBBA9E"/>
</svg>
